<svg xmlns="http://www.w3.org/2000/svg"  viewBox="0 0 100 100" width="200px" height="200px"><path fill="#78ccd3" d="M91,25v52c0,2.21-1.79,4-4,4H13c-2,0-3.66-1.47-3.95-3.39C9.02,77.41,9,77.21,9,77V25	c0-2.21,1.79-4,4-4h74C89.21,21,91,22.79,91,25z"/><path fill="#78bed2" d="M91,25v18.88C85.42,58.91,75.45,71.8,62.64,81H13c-2,0-3.66-1.47-3.95-3.39C9.02,77.41,9,77.21,9,77	V25c0-2.21,1.79-4,4-4h74C89.21,21,91,22.79,91,25z"/><path fill="#78afd2" d="M77.8,21C75.25,52.9,48.56,78,16,78c-2.35,0-4.67-0.13-6.95-0.39C9.02,77.41,9,77.21,9,77V25	c0-2.21,1.79-4,4-4H77.8z"/><path fill="#78a1d1" d="M57.7,21C55.23,41.84,37.51,58,16,58c-2.38,0-4.72-0.2-7-0.58V25c0-2.21,1.79-4,4-4H57.7z"/><path fill="#1f212b" d="M87,82H13c-2.757,0-5-2.243-5-5V25c0-2.757,2.243-5,5-5h57.4c0.553,0,1,0.448,1,1s-0.447,1-1,1H13	c-1.654,0-3,1.346-3,3v52c0,1.654,1.346,3,3,3h74c1.654,0,3-1.346,3-3V25c0-1.654-1.346-3-3-3h-5.43c-0.553,0-1-0.448-1-1	s0.447-1,1-1H87c2.757,0,5,2.243,5,5v52C92,79.757,89.757,82,87,82z"/><path fill="#1f212b" d="M61.5,25h-5c-0.276,0-0.5-0.224-0.5-0.5s0.224-0.5,0.5-0.5h5c0.276,0,0.5,0.224,0.5,0.5	S61.776,25,61.5,25z"/><path fill="#1f212b" d="M12.5,53c-0.276,0-0.5-0.224-0.5-0.5v-26c0-1.378,1.121-2.5,2.5-2.5h39c0.276,0,0.5,0.224,0.5,0.5	S53.776,25,53.5,25h-39c-0.827,0-1.5,0.673-1.5,1.5v26C13,52.776,12.776,53,12.5,53z"/><path fill="#1f212b" d="M12.5,69c-0.276,0-0.5-0.224-0.5-0.5v-11c0-0.276,0.224-0.5,0.5-0.5s0.5,0.224,0.5,0.5v11	C13,68.776,12.776,69,12.5,69z"/><path fill="#1f212b" d="M72.5,78h-24c-0.276,0-0.5-0.224-0.5-0.5s0.224-0.5,0.5-0.5h24c0.276,0,0.5,0.224,0.5,0.5	S72.776,78,72.5,78z"/><path fill="#1f212b" d="M85.5,78h-9c-0.276,0-0.5-0.224-0.5-0.5s0.224-0.5,0.5-0.5h9c0.827,0,1.5-0.673,1.5-1.5v-26	c0-0.276,0.224-0.5,0.5-0.5s0.5,0.224,0.5,0.5v26C88,76.878,86.879,78,85.5,78z"/><path fill="#1f212b" d="M87.5,45c-0.276,0-0.5-0.224-0.5-0.5v-6c0-0.276,0.224-0.5,0.5-0.5s0.5,0.224,0.5,0.5v6	C88,44.776,87.776,45,87.5,45z"/><path fill="#1f212b" d="M87.5,36c-0.276,0-0.5-0.224-0.5-0.5v-2c0-0.276,0.224-0.5,0.5-0.5s0.5,0.224,0.5,0.5v2	C88,35.776,87.776,36,87.5,36z"/><path fill="#fff" d="M18,46.315c0-1.837,4.035-8.09,10.904-8.09c11.044,0,12.717,14.382,20.004,14.382	c5.581,0,7.214-3.596,8.183-3.596c0.458,0,0.909,0.261,0.909,0.633C58,51.217,53.408,58,47.089,58	c-10.906,0-11.073-14.382-20.004-14.382c-4.786,0-6.978,3.596-8.183,3.596C18.107,47.213,18,46.71,18,46.315z"/><path fill="#656566" d="M85.15,13.47c0.47,0.29,0.61,0.91,0.31,1.38L67,44l-8-5L77.47,9.84c0.29-0.46,0.91-0.6,1.37-0.31 L85.15,13.47z"/><polygon fill="#e3e2e3" points="67,44 58,49 59,39"/><path fill="#1f212b" d="M58,50c-0.191,0-0.383-0.055-0.55-0.165c-0.311-0.205-0.482-0.564-0.445-0.935l1-10 c0.016-0.155,0.067-0.304,0.15-0.436l18.47-29.16c0.585-0.927,1.815-1.206,2.748-0.621l6.307,3.938 c0.451,0.278,0.768,0.72,0.888,1.243c0.121,0.525,0.026,1.066-0.265,1.523L67.845,44.535c-0.09,0.141-0.213,0.258-0.359,0.339 l-9,5C58.334,49.958,58.167,50,58,50z M59.972,39.335l-0.786,7.863l7.106-3.948l18.323-28.935l-6.305-3.937L59.972,39.335z M67,44 h0.01H67z"/><path fill="#1f212b" d="M66.999,45c-0.181,0-0.364-0.049-0.529-0.152l-8-5c-0.468-0.293-0.61-0.91-0.317-1.378 c0.293-0.469,0.908-0.611,1.378-0.318l8,5c0.468,0.293,0.61,0.91,0.317,1.378C67.658,44.833,67.332,45,66.999,45z"/><path fill="#1f212b" d="M43,57.696c-0.066,0-0.133-0.013-0.197-0.041c-3.269-1.405-5.289-4.299-7.242-7.098	c-2.311-3.312-4.494-6.439-8.476-6.439c-3.015,0-4.978,1.537-6.276,2.553c-0.772,0.605-1.331,1.042-1.906,1.042	c-0.892,0-1.402-0.51-1.402-1.399c0-2.071,4.17-8.59,11.403-8.59c2.753,0,5.175,0.854,7.406,2.611	c0.217,0.17,0.254,0.485,0.083,0.702s-0.485,0.254-0.702,0.083c-2.048-1.612-4.268-2.396-6.787-2.396	c-6.616,0-10.403,5.965-10.403,7.59c0,0.314,0.05,0.399,0.402,0.399c0.23,0,0.793-0.441,1.29-0.83	c1.407-1.102,3.533-2.766,6.893-2.766c4.504,0,6.939,3.491,9.296,6.867c1.873,2.684,3.811,5.459,6.816,6.751	c0.254,0.109,0.371,0.403,0.262,0.657C43.378,57.583,43.193,57.696,43,57.696z"/><path fill="#1f212b" d="M47.089,58.5c-0.755,0-1.489-0.067-2.184-0.201c-0.271-0.052-0.448-0.314-0.396-0.585	c0.052-0.272,0.316-0.446,0.586-0.397c0.631,0.122,1.302,0.183,1.994,0.183c0.276,0,0.5,0.224,0.5,0.5S47.365,58.5,47.089,58.5z"/><path fill="#1f212b" d="M49,58.293c-0.23,0-0.438-0.16-0.488-0.395c-0.059-0.27,0.113-0.536,0.383-0.594	c5.171-1.116,8.605-6.538,8.605-7.661c-0.018-0.024-0.175-0.133-0.409-0.133c-0.12,0.025-0.483,0.355-0.775,0.621	c-1.145,1.04-3.276,2.975-7.408,2.975c-3.518,0-5.775-3.05-8.165-6.28c-0.867-1.171-1.763-2.382-2.75-3.496	c-0.184-0.207-0.164-0.522,0.042-0.706c0.207-0.183,0.522-0.167,0.706,0.042c1.017,1.146,1.926,2.375,2.806,3.564	c2.333,3.152,4.348,5.875,7.361,5.875c3.746,0,5.617-1.7,6.735-2.715c0.563-0.511,0.97-0.88,1.448-0.88	c0.692,0,1.409,0.424,1.409,1.133c0,1.648-3.794,7.429-9.395,8.638C49.07,58.29,49.034,58.293,49,58.293z"/></svg>