<?xml version="1.0" standalone="no"?><!DOCTYPE svg PUBLIC "-//W3C//DTD SVG 1.1//EN" "http://www.w3.org/Graphics/SVG/1.1/DTD/svg11.dtd"><svg t="1761532810221" class="icon" viewBox="0 0 1024 1024" version="1.1" xmlns="http://www.w3.org/2000/svg" p-id="1600" xmlns:xlink="http://www.w3.org/1999/xlink" width="200" height="200"><path d="M942.569527 778.592613l-416.115931 241.309848a28.934035 28.934035 0 0 1-29.023062 0L81.314603 778.592613A29.156604 29.156604 0 0 1 66.803072 753.353232V270.733536v-0.489653a29.11209 29.11209 0 0 1 22.301463-29.33466L497.38602 4.139793a28.978548 28.978548 0 0 1 29.067576 0l416.115931 241.309848a29.156604 29.156604 0 0 1 14.511531 25.283895v482.619696c0 10.416252-5.519724 20.031255-14.511531 25.239381zM124.893711 705.634332a29.156604 29.156604 0 0 1 24.6607 45.181608l333.320078 193.279351v-416.650098L124.893711 319.832367v385.801965z m400.580579-634.679176a28.845007 28.845007 0 0 1-28.310839 0.712222L155.163162 270.021313l356.734389 206.85609 356.422792-207.078659-342.846053-198.843588z m15.490837 456.445523v416.694612l329.580911-191.142684-0.623195-0.356111a29.245632 29.245632 0 0 1-10.638822-39.83994 28.934035 28.934035 0 0 1 39.661885-10.683336h0.044514V319.387228l-358.025293 208.013451z m254.664018 177.610458a28.666951 28.666951 0 0 1-14.511531-3.917223l-9.882085-5.697779a29.245632 29.245632 0 0 1-10.594308-39.884454 28.934035 28.934035 0 0 1 39.661884-10.683335l9.882086 5.742293a29.245632 29.245632 0 0 1-14.556046 54.440498z m-98.687314-57.20036a28.666951 28.666951 0 0 1-14.511532-3.917223l-9.837571-5.742293a29.245632 29.245632 0 0 1-10.638822-39.83994 29.023062 29.023062 0 0 1 39.706398-10.683336l9.837572 5.742293a29.245632 29.245632 0 0 1-14.556045 54.440499z m-98.642801-57.244875a29.067576 29.067576 0 0 1-14.511531-3.872709l-9.837572-5.742293a29.245632 29.245632 0 0 1-10.638822-39.83994 28.934035 28.934035 0 0 1 39.661884-10.683336l9.882086 5.697779a29.290146 29.290146 0 0 1 10.638822 39.884454 29.023062 29.023062 0 0 1-25.194867 14.556045zM481.6281 389.095994v-11.440072c0-16.114032 13.042572-29.156604 29.067576-29.156604 16.025004 0 29.067576 13.042572 29.067576 29.156604v11.440072a29.156604 29.156604 0 0 1-29.067576 29.201118 29.11209 29.11209 0 0 1-29.067576-29.201118z m29.067576-85.244117a29.11209 29.11209 0 0 1-29.067576-29.156604v-11.440072c0-16.114032 13.042572-29.201118 29.067576-29.201118 16.025004 0 29.067576 13.087086 29.067576 29.201118v11.440072a29.156604 29.156604 0 0 1-29.067576 29.156604z m0-114.445235a29.11209 29.11209 0 0 1-29.067576-29.156604v-11.440073c0-16.114032 13.042572-29.201118 29.067576-29.201118 16.025004 0 29.067576 13.087086 29.067576 29.201118V160.250038a29.11209 29.11209 0 0 1-29.067576 29.156604zM435.734269 588.473749l-9.837571 5.697779a29.023062 29.023062 0 0 1-39.706398-10.683336 29.245632 29.245632 0 0 1 10.638821-39.83994l9.882086-5.742293a28.934035 28.934035 0 0 1 39.661884 10.683336 29.201118 29.201118 0 0 1-10.638822 39.884454z m-98.6428 57.200361l-9.882086 5.697779a29.023062 29.023062 0 0 1-39.661884-10.638822 29.290146 29.290146 0 0 1 10.638822-39.884454l9.882085-5.697779a28.934035 28.934035 0 0 1 39.661885 10.683336 29.245632 29.245632 0 0 1-10.638822 39.83994zM238.448668 702.87447l-9.882086 5.742293a28.978548 28.978548 0 0 1-39.661884-10.683336 29.245632 29.245632 0 0 1 10.638822-39.839939l9.837571-5.742294a28.978548 28.978548 0 0 1 39.706399 10.683336 29.245632 29.245632 0 0 1-10.638822 39.83994z" fill="#B8C2CD" p-id="1601"></path></svg>